<?xml version="1.0" encoding="UTF-8" standalone="no"?>
<!-- Created with Inkscape (http://www.inkscape.org/) -->

<svg
   xmlns:dc="http://purl.org/dc/elements/1.1/"
   xmlns:cc="http://creativecommons.org/ns#"
   xmlns:rdf="http://www.w3.org/1999/02/22-rdf-syntax-ns#"
   xmlns:svg="http://www.w3.org/2000/svg"
   xmlns="http://www.w3.org/2000/svg"
   xmlns:sodipodi="http://sodipodi.sourceforge.net/DTD/sodipodi-0.dtd"
   xmlns:inkscape="http://www.inkscape.org/namespaces/inkscape"
   width="239.78838mm"
   height="103.4546mm"
   viewBox="0 0 239.78838 103.4546"
   version="1.1"
   id="svg8"
   inkscape:version="0.92.5 (0.92.5+68)"
   sodipodi:docname="np.svg">
  <defs
     id="defs2" />
  <sodipodi:namedview
     id="base"
     pagecolor="#ffffff"
     bordercolor="#666666"
     borderopacity="1.0"
     inkscape:pageopacity="0.0"
     inkscape:pageshadow="2"
     inkscape:zoom="0.283125"
     inkscape:cx="239.17531"
     inkscape:cy="211.02035"
     inkscape:document-units="mm"
     inkscape:current-layer="layer1"
     showgrid="false"
     inkscape:window-width="1366"
     inkscape:window-height="716"
     inkscape:window-x="0"
     inkscape:window-y="0"
     inkscape:window-maximized="1" />
  <metadata
     id="metadata5">
    <rdf:RDF>
      <cc:Work
         rdf:about="">
        <dc:format>image/svg+xml</dc:format>
        <dc:type
           rdf:resource="http://purl.org/dc/dcmitype/StillImage" />
        <dc:title></dc:title>
      </cc:Work>
    </rdf:RDF>
  </metadata>
  <g
     inkscape:label="Layer 1"
     inkscape:groupmode="layer"
     id="layer1"
     transform="translate(390.94931,-64.832504)">
    <text
       xml:space="preserve"
       style="font-style:normal;font-variant:normal;font-weight:normal;font-stretch:normal;font-size:10.58333302px;line-height:1.25;font-family:Reckoner;-inkscape-font-specification:Reckoner;letter-spacing:0px;word-spacing:0px;fill:#000000;fill-opacity:1;stroke:none;stroke-width:0.26458332"
       x="-220.73808"
       y="76.261909"
       id="text817"><tspan
         sodipodi:role="line"
         x="-220.73808"
         y="76.261909"
         style="font-style:normal;font-variant:normal;font-weight:bold;font-stretch:normal;font-family:sans-serif;-inkscape-font-specification:'sans-serif Bold';fill:#b40000;fill-opacity:1;stroke-width:0.26458332"
         id="tspan819">nonprophet</tspan></text>
    <rect
       style="opacity:1;fill:#b40000;fill-opacity:1;fill-rule:nonzero;stroke:none;stroke-width:1;stroke-linecap:butt;stroke-linejoin:miter;stroke-miterlimit:4;stroke-dasharray:none;stroke-opacity:1;paint-order:fill markers stroke"
       id="rect823"
       width="7.0088301"
       height="11.798197"
       x="-231.81705"
       y="64.832504" />
    <rect
       style="opacity:1;fill:#f5f5f5;fill-opacity:1;fill-rule:nonzero;stroke:none;stroke-width:1;stroke-linecap:butt;stroke-linejoin:miter;stroke-miterlimit:4;stroke-dasharray:none;stroke-opacity:1;paint-order:fill markers stroke"
       id="rect825"
       width="7.9433408"
       height="5.7238779"
       x="-231.29138"
       y="78.499718" />
    <g
       id="g865"
       transform="matrix(2.2443633,0,0,2.2443633,281.08215,-94.918816)">
      <path
         d="m -209.70837,95.983533 v 3.524333 h -1.86035 v -0.573608 -2.123902 q 0,-0.749308 -0.0362,-1.033528 -0.031,-0.284221 -0.11369,-0.418579 -0.10852,-0.180868 -0.29456,-0.279053 -0.18603,-0.103353 -0.42374,-0.103353 -0.57878,0 -0.90951,0.449585 -0.33073,0.444417 -0.33073,1.235067 v 2.847371 h -1.85002 v -5.78776 h 1.85002 v 0.847493 q 0.41858,-0.506429 0.88884,-0.74414 0.47025,-0.24288 1.03869,-0.24288 1.00252,0 1.51929,0.61495 0.52193,0.614949 0.52193,1.788004 z"
         style="font-style:normal;font-variant:normal;font-weight:bold;font-stretch:normal;font-size:10.58333302px;line-height:1.25;font-family:sans-serif;-inkscape-font-specification:'sans-serif Bold';letter-spacing:0px;word-spacing:0px;fill:#b40000;fill-opacity:1;stroke:none;stroke-width:0.26458332"
         id="path831"
         inkscape:connector-curvature="0" />
      <path
         d="m -205.22802,94.903496 q -0.61495,0 -0.94051,0.444417 -0.3204,0.43925 -0.3204,1.27124 0,0.831991 0.3204,1.276408 0.32556,0.43925 0.94051,0.43925 0.60461,0 0.92501,-0.43925 0.32039,-0.444417 0.32039,-1.276408 0,-0.83199 -0.32039,-1.27124 -0.3204,-0.444417 -0.92501,-0.444417 z m 0,-1.322917 q 1.49345,0 2.3306,0.806153 0.84233,0.806152 0.84233,2.232421 0,1.42627 -0.84233,2.232422 -0.83715,0.806153 -2.3306,0.806153 -1.49862,0 -2.34611,-0.806153 -0.84233,-0.806152 -0.84233,-2.232422 0,-1.426269 0.84233,-2.232421 0.84749,-0.806153 2.34611,-0.806153 z"
         style="font-style:normal;font-variant:normal;font-weight:bold;font-stretch:normal;font-size:10.58333302px;line-height:1.25;font-family:sans-serif;-inkscape-font-specification:'sans-serif Bold';letter-spacing:0px;word-spacing:0px;fill:#b40000;fill-opacity:1;stroke:none;stroke-width:0.26458332"
         id="path833"
         inkscape:connector-curvature="0" />
      <path
         d="m -194.88757,95.983533 v 3.524333 h -1.86035 v -0.573608 -2.123902 q 0,-0.749308 -0.0362,-1.033528 -0.031,-0.284221 -0.11369,-0.418579 -0.10852,-0.180868 -0.29456,-0.279053 -0.18603,-0.103353 -0.42374,-0.103353 -0.57878,0 -0.90951,0.449585 -0.33073,0.444417 -0.33073,1.235067 v 2.847371 h -1.85001 v -5.78776 h 1.85001 v 0.847493 q 0.41858,-0.506429 0.88884,-0.74414 0.47025,-0.24288 1.03869,-0.24288 1.00253,0 1.51929,0.61495 0.52193,0.614949 0.52193,1.788004 z"
         style="font-style:normal;font-variant:normal;font-weight:bold;font-stretch:normal;font-size:10.58333302px;line-height:1.25;font-family:sans-serif;-inkscape-font-specification:'sans-serif Bold';letter-spacing:0px;word-spacing:0px;fill:#b40000;fill-opacity:1;stroke:none;stroke-width:0.26458332"
         id="path835"
         inkscape:connector-curvature="0" />
    </g>
    <g
       id="g874"
       transform="translate(-9.8959598,59.723482)">
      <path
         d="m -191.31156,98.670708 v 3.038572 h -1.85002 v -7.989174 h 1.85002 v 0.847493 q 0.38241,-0.506429 0.84749,-0.74414 0.46509,-0.24288 1.06971,-0.24288 1.0697,0 1.75699,0.852661 0.6873,0.847494 0.6873,2.185913 0,1.33842 -0.6873,2.191081 -0.68729,0.847494 -1.75699,0.847494 -0.60462,0 -1.06971,-0.237712 -0.46508,-0.242879 -0.84749,-0.749308 z m 1.2299,-3.746542 q -0.59428,0 -0.91467,0.43925 -0.31523,0.434082 -0.31523,1.255737 0,0.821656 0.31523,1.260905 0.32039,0.434082 0.91467,0.434082 0.59428,0 0.90434,-0.434082 0.31522,-0.434082 0.31522,-1.260905 0,-0.826822 -0.31522,-1.260904 -0.31006,-0.434083 -0.90434,-0.434083 z"
         style="font-style:normal;font-variant:normal;font-weight:bold;font-stretch:normal;font-size:10.58333302px;line-height:1.25;font-family:sans-serif;-inkscape-font-specification:'sans-serif Bold';letter-spacing:0px;word-spacing:0px;fill:#b40000;fill-opacity:1;stroke:none;stroke-width:0.26458332"
         id="path837"
         inkscape:connector-curvature="0" />
      <path
         d="m -181.276,95.296237 q -0.24288,-0.113688 -0.48575,-0.165365 -0.23772,-0.05684 -0.4806,-0.05684 -0.71313,0 -1.1007,0.45992 -0.38241,0.454753 -0.38241,1.307414 v 2.666504 h -1.85002 v -5.78776 h 1.85002 v 0.950846 q 0.35657,-0.568441 0.81649,-0.826823 0.46509,-0.26355 1.11104,-0.26355 0.093,0 0.20154,0.01034 0.10852,0.0052 0.31523,0.03101 z"
         style="font-style:normal;font-variant:normal;font-weight:bold;font-stretch:normal;font-size:10.58333302px;line-height:1.25;font-family:sans-serif;-inkscape-font-specification:'sans-serif Bold';letter-spacing:0px;word-spacing:0px;fill:#b40000;fill-opacity:1;stroke:none;stroke-width:0.26458332"
         id="path839"
         inkscape:connector-curvature="0" />
      <path
         d="m -177.59147,94.903496 q -0.61495,0 -0.94051,0.444417 -0.32039,0.43925 -0.32039,1.27124 0,0.831991 0.32039,1.276408 0.32556,0.43925 0.94051,0.43925 0.60462,0 0.92501,-0.43925 0.32039,-0.444417 0.32039,-1.276408 0,-0.83199 -0.32039,-1.27124 -0.32039,-0.444417 -0.92501,-0.444417 z m 0,-1.322917 q 1.49345,0 2.33061,0.806153 0.84232,0.806152 0.84232,2.232421 0,1.42627 -0.84232,2.232422 -0.83716,0.806153 -2.33061,0.806153 -1.49862,0 -2.34611,-0.806153 -0.84232,-0.806152 -0.84232,-2.232422 0,-1.426269 0.84232,-2.232421 0.84749,-0.806153 2.34611,-0.806153 z"
         style="font-style:normal;font-variant:normal;font-weight:bold;font-stretch:normal;font-size:10.58333302px;line-height:1.25;font-family:sans-serif;-inkscape-font-specification:'sans-serif Bold';letter-spacing:0px;word-spacing:0px;fill:#b40000;fill-opacity:1;stroke:none;stroke-width:0.26458332"
         id="path841"
         inkscape:connector-curvature="0" />
      <path
         d="m -171.21976,98.670708 v 3.038572 h -1.85002 v -7.989174 h 1.85002 v 0.847493 q 0.3824,-0.506429 0.84749,-0.74414 0.46509,-0.24288 1.0697,-0.24288 1.0697,0 1.757,0.852661 0.6873,0.847494 0.6873,2.185913 0,1.33842 -0.6873,2.191081 -0.6873,0.847494 -1.757,0.847494 -0.60461,0 -1.0697,-0.237712 -0.46509,-0.242879 -0.84749,-0.749308 z m 1.2299,-3.746542 q -0.59428,0 -0.91468,0.43925 -0.31522,0.434082 -0.31522,1.255737 0,0.821656 0.31522,1.260905 0.3204,0.434082 0.91468,0.434082 0.59427,0 0.90433,-0.434082 0.31523,-0.434082 0.31523,-1.260905 0,-0.826822 -0.31523,-1.260904 -0.31006,-0.434083 -0.90433,-0.434083 z"
         style="font-style:normal;font-variant:normal;font-weight:bold;font-stretch:normal;font-size:10.58333302px;line-height:1.25;font-family:sans-serif;-inkscape-font-specification:'sans-serif Bold';letter-spacing:0px;word-spacing:0px;fill:#b40000;fill-opacity:1;stroke:none;stroke-width:0.26458332"
         id="path843"
         inkscape:connector-curvature="0" />
      <path
         d="m -159.66491,95.983533 v 3.524333 h -1.86035 v -0.573608 -2.113566 q 0,-0.759644 -0.0362,-1.043864 -0.031,-0.284221 -0.11369,-0.418579 -0.10852,-0.180868 -0.29455,-0.279053 -0.18604,-0.103353 -0.42375,-0.103353 -0.57877,0 -0.9095,0.449585 -0.33073,0.444417 -0.33073,1.235067 v 2.847371 h -1.85002 v -8.040853 h 1.85002 v 3.100586 q 0.41858,-0.506429 0.88883,-0.74414 0.47026,-0.24288 1.0387,-0.24288 1.00252,0 1.51929,0.61495 0.52193,0.614949 0.52193,1.788004 z"
         style="font-style:normal;font-variant:normal;font-weight:bold;font-stretch:normal;font-size:10.58333302px;line-height:1.25;font-family:sans-serif;-inkscape-font-specification:'sans-serif Bold';letter-spacing:0px;word-spacing:0px;fill:#b40000;fill-opacity:1;stroke:none;stroke-width:0.26458332"
         id="path845"
         inkscape:connector-curvature="0" />
      <path
         d="m -152.1615,96.598483 v 0.527099 h -4.32531 q 0.0672,0.651123 0.47025,0.976685 0.40308,0.325562 1.12655,0.325562 0.58394,0 1.19372,-0.170533 0.61495,-0.1757 1.26091,-0.527099 v 1.426269 q -0.65629,0.248047 -1.31258,0.37207 -0.65629,0.129192 -1.31258,0.129192 -1.57097,0 -2.4443,-0.795817 -0.86816,-0.800985 -0.86816,-2.242758 0,-1.415934 0.85266,-2.227254 0.85783,-0.81132 2.35644,-0.81132 1.36426,0 2.18075,0.821656 0.82165,0.821655 0.82165,2.196248 z m -1.90169,-0.61495 q 0,-0.527099 -0.31006,-0.847493 -0.30489,-0.325562 -0.80098,-0.325562 -0.53744,0 -0.87333,0.304891 -0.3359,0.299724 -0.41858,0.868164 z"
         style="font-style:normal;font-variant:normal;font-weight:bold;font-stretch:normal;font-size:10.58333302px;line-height:1.25;font-family:sans-serif;-inkscape-font-specification:'sans-serif Bold';letter-spacing:0px;word-spacing:0px;fill:#b40000;fill-opacity:1;stroke:none;stroke-width:0.26458332"
         id="path847"
         inkscape:connector-curvature="0" />
      <path
         d="m -148.74568,92.076795 v 1.643311 h 1.90686 v 1.322916 h -1.90686 v 2.454631 q 0,0.403076 0.16019,0.54777 0.1602,0.139526 0.63562,0.139526 h 0.95085 v 1.322917 h -1.58647 q -1.09554,0 -1.55546,-0.454753 -0.45475,-0.45992 -0.45475,-1.55546 v -2.454631 h -0.91984 v -1.322916 h 0.91984 v -1.643311 z"
         style="font-style:normal;font-variant:normal;font-weight:bold;font-stretch:normal;font-size:10.58333302px;line-height:1.25;font-family:sans-serif;-inkscape-font-specification:'sans-serif Bold';letter-spacing:0px;word-spacing:0px;fill:#b40000;fill-opacity:1;stroke:none;stroke-width:0.26458332"
         id="path849"
         inkscape:connector-curvature="0" />
    </g>
    <circle
       style="opacity:1;fill:#f5f5f5;fill-opacity:1;fill-rule:nonzero;stroke:none;stroke-width:1;stroke-linecap:butt;stroke-linejoin:miter;stroke-miterlimit:4;stroke-dasharray:none;stroke-opacity:1;paint-order:fill markers stroke"
       id="path944"
       cx="-281.39529"
       cy="139.91057"
       r="28.376534"
       inkscape:export-xdpi="268.32376"
       inkscape:export-ydpi="268.32376" />
    <g
       id="g958"
       transform="translate(-33.255436,-5.3778263)">
      <g
         id="g926"
         transform="matrix(2.2443633,0,0,2.2443633,212.62924,-77.84763)">
        <path
           d="m -209.70837,95.983533 v 3.524333 h -1.86035 v -0.573608 -2.123902 q 0,-0.749308 -0.0362,-1.033528 -0.031,-0.284221 -0.11369,-0.418579 -0.10852,-0.180868 -0.29456,-0.279053 -0.18603,-0.103353 -0.42374,-0.103353 -0.57878,0 -0.90951,0.449585 -0.33073,0.444417 -0.33073,1.235067 v 2.847371 h -1.85002 v -5.78776 h 1.85002 v 0.847493 q 0.41858,-0.506429 0.88884,-0.74414 0.47025,-0.24288 1.03869,-0.24288 1.00252,0 1.51929,0.61495 0.52193,0.614949 0.52193,1.788004 z"
           style="font-style:normal;font-variant:normal;font-weight:bold;font-stretch:normal;font-size:10.58333302px;line-height:1.25;font-family:sans-serif;-inkscape-font-specification:'sans-serif Bold';letter-spacing:0px;word-spacing:0px;fill:#b40000;fill-opacity:1;stroke:none;stroke-width:0.26458332"
           id="path920"
           inkscape:connector-curvature="0" />
        <path
           d="m -205.22802,94.903496 q -0.61495,0 -0.94051,0.444417 -0.3204,0.43925 -0.3204,1.27124 0,0.831991 0.3204,1.276408 0.32556,0.43925 0.94051,0.43925 0.60461,0 0.92501,-0.43925 0.32039,-0.444417 0.32039,-1.276408 0,-0.83199 -0.32039,-1.27124 -0.3204,-0.444417 -0.92501,-0.444417 z m 0,-1.322917 q 1.49345,0 2.3306,0.806153 0.84233,0.806152 0.84233,2.232421 0,1.42627 -0.84233,2.232422 -0.83715,0.806153 -2.3306,0.806153 -1.49862,0 -2.34611,-0.806153 -0.84233,-0.806152 -0.84233,-2.232422 0,-1.426269 0.84233,-2.232421 0.84749,-0.806153 2.34611,-0.806153 z"
           style="font-style:normal;font-variant:normal;font-weight:bold;font-stretch:normal;font-size:10.58333302px;line-height:1.25;font-family:sans-serif;-inkscape-font-specification:'sans-serif Bold';letter-spacing:0px;word-spacing:0px;fill:#b40000;fill-opacity:1;stroke:none;stroke-width:0.26458332"
           id="path922"
           inkscape:connector-curvature="0" />
        <path
           d="m -194.88757,95.983533 v 3.524333 h -1.86035 v -0.573608 -2.123902 q 0,-0.749308 -0.0362,-1.033528 -0.031,-0.284221 -0.11369,-0.418579 -0.10852,-0.180868 -0.29456,-0.279053 -0.18603,-0.103353 -0.42374,-0.103353 -0.57878,0 -0.90951,0.449585 -0.33073,0.444417 -0.33073,1.235067 v 2.847371 h -1.85001 v -5.78776 h 1.85001 v 0.847493 q 0.41858,-0.506429 0.88884,-0.74414 0.47025,-0.24288 1.03869,-0.24288 1.00253,0 1.51929,0.61495 0.52193,0.614949 0.52193,1.788004 z"
           style="font-style:normal;font-variant:normal;font-weight:bold;font-stretch:normal;font-size:10.58333302px;line-height:1.25;font-family:sans-serif;-inkscape-font-specification:'sans-serif Bold';letter-spacing:0px;word-spacing:0px;fill:#b40000;fill-opacity:1;stroke:none;stroke-width:0.26458332"
           id="path924"
           inkscape:connector-curvature="0" />
      </g>
      <g
         id="g942"
         transform="translate(-78.348866,56.686322)">
        <path
           d="m -191.31156,98.670708 v 3.038572 h -1.85002 v -7.989174 h 1.85002 v 0.847493 q 0.38241,-0.506429 0.84749,-0.74414 0.46509,-0.24288 1.06971,-0.24288 1.0697,0 1.75699,0.852661 0.6873,0.847494 0.6873,2.185913 0,1.33842 -0.6873,2.191081 -0.68729,0.847494 -1.75699,0.847494 -0.60462,0 -1.06971,-0.237712 -0.46508,-0.242879 -0.84749,-0.749308 z m 1.2299,-3.746542 q -0.59428,0 -0.91467,0.43925 -0.31523,0.434082 -0.31523,1.255737 0,0.821656 0.31523,1.260905 0.32039,0.434082 0.91467,0.434082 0.59428,0 0.90434,-0.434082 0.31522,-0.434082 0.31522,-1.260905 0,-0.826822 -0.31522,-1.260904 -0.31006,-0.434083 -0.90434,-0.434083 z"
           style="font-style:normal;font-variant:normal;font-weight:bold;font-stretch:normal;font-size:10.58333302px;line-height:1.25;font-family:sans-serif;-inkscape-font-specification:'sans-serif Bold';letter-spacing:0px;word-spacing:0px;fill:#b40000;fill-opacity:1;stroke:none;stroke-width:0.26458332"
           id="path928"
           inkscape:connector-curvature="0" />
        <path
           d="m -181.276,95.296237 q -0.24288,-0.113688 -0.48575,-0.165365 -0.23772,-0.05684 -0.4806,-0.05684 -0.71313,0 -1.1007,0.45992 -0.38241,0.454753 -0.38241,1.307414 v 2.666504 h -1.85002 v -5.78776 h 1.85002 v 0.950846 q 0.35657,-0.568441 0.81649,-0.826823 0.46509,-0.26355 1.11104,-0.26355 0.093,0 0.20154,0.01034 0.10852,0.0052 0.31523,0.03101 z"
           style="font-style:normal;font-variant:normal;font-weight:bold;font-stretch:normal;font-size:10.58333302px;line-height:1.25;font-family:sans-serif;-inkscape-font-specification:'sans-serif Bold';letter-spacing:0px;word-spacing:0px;fill:#b40000;fill-opacity:1;stroke:none;stroke-width:0.26458332"
           id="path930"
           inkscape:connector-curvature="0" />
        <path
           d="m -177.59147,94.903496 q -0.61495,0 -0.94051,0.444417 -0.32039,0.43925 -0.32039,1.27124 0,0.831991 0.32039,1.276408 0.32556,0.43925 0.94051,0.43925 0.60462,0 0.92501,-0.43925 0.32039,-0.444417 0.32039,-1.276408 0,-0.83199 -0.32039,-1.27124 -0.32039,-0.444417 -0.92501,-0.444417 z m 0,-1.322917 q 1.49345,0 2.33061,0.806153 0.84232,0.806152 0.84232,2.232421 0,1.42627 -0.84232,2.232422 -0.83716,0.806153 -2.33061,0.806153 -1.49862,0 -2.34611,-0.806153 -0.84232,-0.806152 -0.84232,-2.232422 0,-1.426269 0.84232,-2.232421 0.84749,-0.806153 2.34611,-0.806153 z"
           style="font-style:normal;font-variant:normal;font-weight:bold;font-stretch:normal;font-size:10.58333302px;line-height:1.25;font-family:sans-serif;-inkscape-font-specification:'sans-serif Bold';letter-spacing:0px;word-spacing:0px;fill:#b40000;fill-opacity:1;stroke:none;stroke-width:0.26458332"
           id="path932"
           inkscape:connector-curvature="0" />
        <path
           d="m -171.21976,98.670708 v 3.038572 h -1.85002 v -7.989174 h 1.85002 v 0.847493 q 0.3824,-0.506429 0.84749,-0.74414 0.46509,-0.24288 1.0697,-0.24288 1.0697,0 1.757,0.852661 0.6873,0.847494 0.6873,2.185913 0,1.33842 -0.6873,2.191081 -0.6873,0.847494 -1.757,0.847494 -0.60461,0 -1.0697,-0.237712 -0.46509,-0.242879 -0.84749,-0.749308 z m 1.2299,-3.746542 q -0.59428,0 -0.91468,0.43925 -0.31522,0.434082 -0.31522,1.255737 0,0.821656 0.31522,1.260905 0.3204,0.434082 0.91468,0.434082 0.59427,0 0.90433,-0.434082 0.31523,-0.434082 0.31523,-1.260905 0,-0.826822 -0.31523,-1.260904 -0.31006,-0.434083 -0.90433,-0.434083 z"
           style="font-style:normal;font-variant:normal;font-weight:bold;font-stretch:normal;font-size:10.58333302px;line-height:1.25;font-family:sans-serif;-inkscape-font-specification:'sans-serif Bold';letter-spacing:0px;word-spacing:0px;fill:#b40000;fill-opacity:1;stroke:none;stroke-width:0.26458332"
           id="path934"
           inkscape:connector-curvature="0" />
        <path
           d="m -159.66491,95.983533 v 3.524333 h -1.86035 v -0.573608 -2.113566 q 0,-0.759644 -0.0362,-1.043864 -0.031,-0.284221 -0.11369,-0.418579 -0.10852,-0.180868 -0.29455,-0.279053 -0.18604,-0.103353 -0.42375,-0.103353 -0.57877,0 -0.9095,0.449585 -0.33073,0.444417 -0.33073,1.235067 v 2.847371 h -1.85002 v -8.040853 h 1.85002 v 3.100586 q 0.41858,-0.506429 0.88883,-0.74414 0.47026,-0.24288 1.0387,-0.24288 1.00252,0 1.51929,0.61495 0.52193,0.614949 0.52193,1.788004 z"
           style="font-style:normal;font-variant:normal;font-weight:bold;font-stretch:normal;font-size:10.58333302px;line-height:1.25;font-family:sans-serif;-inkscape-font-specification:'sans-serif Bold';letter-spacing:0px;word-spacing:0px;fill:#b40000;fill-opacity:1;stroke:none;stroke-width:0.26458332"
           id="path936"
           inkscape:connector-curvature="0" />
        <path
           d="m -152.1615,96.598483 v 0.527099 h -4.32531 q 0.0672,0.651123 0.47025,0.976685 0.40308,0.325562 1.12655,0.325562 0.58394,0 1.19372,-0.170533 0.61495,-0.1757 1.26091,-0.527099 v 1.426269 q -0.65629,0.248047 -1.31258,0.37207 -0.65629,0.129192 -1.31258,0.129192 -1.57097,0 -2.4443,-0.795817 -0.86816,-0.800985 -0.86816,-2.242758 0,-1.415934 0.85266,-2.227254 0.85783,-0.81132 2.35644,-0.81132 1.36426,0 2.18075,0.821656 0.82165,0.821655 0.82165,2.196248 z m -1.90169,-0.61495 q 0,-0.527099 -0.31006,-0.847493 -0.30489,-0.325562 -0.80098,-0.325562 -0.53744,0 -0.87333,0.304891 -0.3359,0.299724 -0.41858,0.868164 z"
           style="font-style:normal;font-variant:normal;font-weight:bold;font-stretch:normal;font-size:10.58333302px;line-height:1.25;font-family:sans-serif;-inkscape-font-specification:'sans-serif Bold';letter-spacing:0px;word-spacing:0px;fill:#b40000;fill-opacity:1;stroke:none;stroke-width:0.26458332"
           id="path938"
           inkscape:connector-curvature="0" />
        <path
           d="m -148.74568,92.076795 v 1.643311 h 1.90686 v 1.322916 h -1.90686 v 2.454631 q 0,0.403076 0.16019,0.54777 0.1602,0.139526 0.63562,0.139526 h 0.95085 v 1.322917 h -1.58647 q -1.09554,0 -1.55546,-0.454753 -0.45475,-0.45992 -0.45475,-1.55546 v -2.454631 h -0.91984 v -1.322916 h 0.91984 v -1.643311 z"
           style="font-style:normal;font-variant:normal;font-weight:bold;font-stretch:normal;font-size:10.58333302px;line-height:1.25;font-family:sans-serif;-inkscape-font-specification:'sans-serif Bold';letter-spacing:0px;word-spacing:0px;fill:#b40000;fill-opacity:1;stroke:none;stroke-width:0.26458332"
           id="path940"
           inkscape:connector-curvature="0" />
      </g>
    </g>
    <circle
       r="30.976555"
       cy="135.23802"
       cx="-359.42694"
       id="circle960"
       style="opacity:1;fill:#f5f5f5;fill-opacity:1;fill-rule:nonzero;stroke:#b40000;stroke-width:1.09162545;stroke-linecap:butt;stroke-linejoin:miter;stroke-miterlimit:4;stroke-dasharray:none;stroke-opacity:1;paint-order:fill markers stroke"
       inkscape:export-xdpi="268.32376"
       inkscape:export-ydpi="268.32376" />
    <g
       transform="translate(-111.28708,-10.05038)"
       id="g986">
      <g
         transform="matrix(2.2443633,0,0,2.2443633,212.62924,-77.84763)"
         id="g968">
        <path
           inkscape:connector-curvature="0"
           id="path962"
           style="font-style:normal;font-variant:normal;font-weight:bold;font-stretch:normal;font-size:10.58333302px;line-height:1.25;font-family:sans-serif;-inkscape-font-specification:'sans-serif Bold';letter-spacing:0px;word-spacing:0px;fill:#b40000;fill-opacity:1;stroke:none;stroke-width:0.26458332"
           d="m -209.70837,95.983533 v 3.524333 h -1.86035 v -0.573608 -2.123902 q 0,-0.749308 -0.0362,-1.033528 -0.031,-0.284221 -0.11369,-0.418579 -0.10852,-0.180868 -0.29456,-0.279053 -0.18603,-0.103353 -0.42374,-0.103353 -0.57878,0 -0.90951,0.449585 -0.33073,0.444417 -0.33073,1.235067 v 2.847371 h -1.85002 v -5.78776 h 1.85002 v 0.847493 q 0.41858,-0.506429 0.88884,-0.74414 0.47025,-0.24288 1.03869,-0.24288 1.00252,0 1.51929,0.61495 0.52193,0.614949 0.52193,1.788004 z" />
        <path
           inkscape:connector-curvature="0"
           id="path964"
           style="font-style:normal;font-variant:normal;font-weight:bold;font-stretch:normal;font-size:10.58333302px;line-height:1.25;font-family:sans-serif;-inkscape-font-specification:'sans-serif Bold';letter-spacing:0px;word-spacing:0px;fill:#b40000;fill-opacity:1;stroke:none;stroke-width:0.26458332"
           d="m -205.22802,94.903496 q -0.61495,0 -0.94051,0.444417 -0.3204,0.43925 -0.3204,1.27124 0,0.831991 0.3204,1.276408 0.32556,0.43925 0.94051,0.43925 0.60461,0 0.92501,-0.43925 0.32039,-0.444417 0.32039,-1.276408 0,-0.83199 -0.32039,-1.27124 -0.3204,-0.444417 -0.92501,-0.444417 z m 0,-1.322917 q 1.49345,0 2.3306,0.806153 0.84233,0.806152 0.84233,2.232421 0,1.42627 -0.84233,2.232422 -0.83715,0.806153 -2.3306,0.806153 -1.49862,0 -2.34611,-0.806153 -0.84233,-0.806152 -0.84233,-2.232422 0,-1.426269 0.84233,-2.232421 0.84749,-0.806153 2.34611,-0.806153 z" />
        <path
           inkscape:connector-curvature="0"
           id="path966"
           style="font-style:normal;font-variant:normal;font-weight:bold;font-stretch:normal;font-size:10.58333302px;line-height:1.25;font-family:sans-serif;-inkscape-font-specification:'sans-serif Bold';letter-spacing:0px;word-spacing:0px;fill:#b40000;fill-opacity:1;stroke:none;stroke-width:0.26458332"
           d="m -194.88757,95.983533 v 3.524333 h -1.86035 v -0.573608 -2.123902 q 0,-0.749308 -0.0362,-1.033528 -0.031,-0.284221 -0.11369,-0.418579 -0.10852,-0.180868 -0.29456,-0.279053 -0.18603,-0.103353 -0.42374,-0.103353 -0.57878,0 -0.90951,0.449585 -0.33073,0.444417 -0.33073,1.235067 v 2.847371 h -1.85001 v -5.78776 h 1.85001 v 0.847493 q 0.41858,-0.506429 0.88884,-0.74414 0.47025,-0.24288 1.03869,-0.24288 1.00253,0 1.51929,0.61495 0.52193,0.614949 0.52193,1.788004 z" />
      </g>
      <g
         transform="translate(-78.348866,56.686322)"
         id="g984">
        <path
           inkscape:connector-curvature="0"
           id="path970"
           style="font-style:normal;font-variant:normal;font-weight:bold;font-stretch:normal;font-size:10.58333302px;line-height:1.25;font-family:sans-serif;-inkscape-font-specification:'sans-serif Bold';letter-spacing:0px;word-spacing:0px;fill:#b40000;fill-opacity:1;stroke:none;stroke-width:0.26458332"
           d="m -191.31156,98.670708 v 3.038572 h -1.85002 v -7.989174 h 1.85002 v 0.847493 q 0.38241,-0.506429 0.84749,-0.74414 0.46509,-0.24288 1.06971,-0.24288 1.0697,0 1.75699,0.852661 0.6873,0.847494 0.6873,2.185913 0,1.33842 -0.6873,2.191081 -0.68729,0.847494 -1.75699,0.847494 -0.60462,0 -1.06971,-0.237712 -0.46508,-0.242879 -0.84749,-0.749308 z m 1.2299,-3.746542 q -0.59428,0 -0.91467,0.43925 -0.31523,0.434082 -0.31523,1.255737 0,0.821656 0.31523,1.260905 0.32039,0.434082 0.91467,0.434082 0.59428,0 0.90434,-0.434082 0.31522,-0.434082 0.31522,-1.260905 0,-0.826822 -0.31522,-1.260904 -0.31006,-0.434083 -0.90434,-0.434083 z" />
        <path
           inkscape:connector-curvature="0"
           id="path972"
           style="font-style:normal;font-variant:normal;font-weight:bold;font-stretch:normal;font-size:10.58333302px;line-height:1.25;font-family:sans-serif;-inkscape-font-specification:'sans-serif Bold';letter-spacing:0px;word-spacing:0px;fill:#b40000;fill-opacity:1;stroke:none;stroke-width:0.26458332"
           d="m -181.276,95.296237 q -0.24288,-0.113688 -0.48575,-0.165365 -0.23772,-0.05684 -0.4806,-0.05684 -0.71313,0 -1.1007,0.45992 -0.38241,0.454753 -0.38241,1.307414 v 2.666504 h -1.85002 v -5.78776 h 1.85002 v 0.950846 q 0.35657,-0.568441 0.81649,-0.826823 0.46509,-0.26355 1.11104,-0.26355 0.093,0 0.20154,0.01034 0.10852,0.0052 0.31523,0.03101 z" />
        <path
           inkscape:connector-curvature="0"
           id="path974"
           style="font-style:normal;font-variant:normal;font-weight:bold;font-stretch:normal;font-size:10.58333302px;line-height:1.25;font-family:sans-serif;-inkscape-font-specification:'sans-serif Bold';letter-spacing:0px;word-spacing:0px;fill:#b40000;fill-opacity:1;stroke:none;stroke-width:0.26458332"
           d="m -177.59147,94.903496 q -0.61495,0 -0.94051,0.444417 -0.32039,0.43925 -0.32039,1.27124 0,0.831991 0.32039,1.276408 0.32556,0.43925 0.94051,0.43925 0.60462,0 0.92501,-0.43925 0.32039,-0.444417 0.32039,-1.276408 0,-0.83199 -0.32039,-1.27124 -0.32039,-0.444417 -0.92501,-0.444417 z m 0,-1.322917 q 1.49345,0 2.33061,0.806153 0.84232,0.806152 0.84232,2.232421 0,1.42627 -0.84232,2.232422 -0.83716,0.806153 -2.33061,0.806153 -1.49862,0 -2.34611,-0.806153 -0.84232,-0.806152 -0.84232,-2.232422 0,-1.426269 0.84232,-2.232421 0.84749,-0.806153 2.34611,-0.806153 z" />
        <path
           inkscape:connector-curvature="0"
           id="path976"
           style="font-style:normal;font-variant:normal;font-weight:bold;font-stretch:normal;font-size:10.58333302px;line-height:1.25;font-family:sans-serif;-inkscape-font-specification:'sans-serif Bold';letter-spacing:0px;word-spacing:0px;fill:#b40000;fill-opacity:1;stroke:none;stroke-width:0.26458332"
           d="m -171.21976,98.670708 v 3.038572 h -1.85002 v -7.989174 h 1.85002 v 0.847493 q 0.3824,-0.506429 0.84749,-0.74414 0.46509,-0.24288 1.0697,-0.24288 1.0697,0 1.757,0.852661 0.6873,0.847494 0.6873,2.185913 0,1.33842 -0.6873,2.191081 -0.6873,0.847494 -1.757,0.847494 -0.60461,0 -1.0697,-0.237712 -0.46509,-0.242879 -0.84749,-0.749308 z m 1.2299,-3.746542 q -0.59428,0 -0.91468,0.43925 -0.31522,0.434082 -0.31522,1.255737 0,0.821656 0.31522,1.260905 0.3204,0.434082 0.91468,0.434082 0.59427,0 0.90433,-0.434082 0.31523,-0.434082 0.31523,-1.260905 0,-0.826822 -0.31523,-1.260904 -0.31006,-0.434083 -0.90433,-0.434083 z" />
        <path
           inkscape:connector-curvature="0"
           id="path978"
           style="font-style:normal;font-variant:normal;font-weight:bold;font-stretch:normal;font-size:10.58333302px;line-height:1.25;font-family:sans-serif;-inkscape-font-specification:'sans-serif Bold';letter-spacing:0px;word-spacing:0px;fill:#b40000;fill-opacity:1;stroke:none;stroke-width:0.26458332"
           d="m -159.66491,95.983533 v 3.524333 h -1.86035 v -0.573608 -2.113566 q 0,-0.759644 -0.0362,-1.043864 -0.031,-0.284221 -0.11369,-0.418579 -0.10852,-0.180868 -0.29455,-0.279053 -0.18604,-0.103353 -0.42375,-0.103353 -0.57877,0 -0.9095,0.449585 -0.33073,0.444417 -0.33073,1.235067 v 2.847371 h -1.85002 v -8.040853 h 1.85002 v 3.100586 q 0.41858,-0.506429 0.88883,-0.74414 0.47026,-0.24288 1.0387,-0.24288 1.00252,0 1.51929,0.61495 0.52193,0.614949 0.52193,1.788004 z" />
        <path
           inkscape:connector-curvature="0"
           id="path980"
           style="font-style:normal;font-variant:normal;font-weight:bold;font-stretch:normal;font-size:10.58333302px;line-height:1.25;font-family:sans-serif;-inkscape-font-specification:'sans-serif Bold';letter-spacing:0px;word-spacing:0px;fill:#b40000;fill-opacity:1;stroke:none;stroke-width:0.26458332"
           d="m -152.1615,96.598483 v 0.527099 h -4.32531 q 0.0672,0.651123 0.47025,0.976685 0.40308,0.325562 1.12655,0.325562 0.58394,0 1.19372,-0.170533 0.61495,-0.1757 1.26091,-0.527099 v 1.426269 q -0.65629,0.248047 -1.31258,0.37207 -0.65629,0.129192 -1.31258,0.129192 -1.57097,0 -2.4443,-0.795817 -0.86816,-0.800985 -0.86816,-2.242758 0,-1.415934 0.85266,-2.227254 0.85783,-0.81132 2.35644,-0.81132 1.36426,0 2.18075,0.821656 0.82165,0.821655 0.82165,2.196248 z m -1.90169,-0.61495 q 0,-0.527099 -0.31006,-0.847493 -0.30489,-0.325562 -0.80098,-0.325562 -0.53744,0 -0.87333,0.304891 -0.3359,0.299724 -0.41858,0.868164 z" />
        <path
           inkscape:connector-curvature="0"
           id="path982"
           style="font-style:normal;font-variant:normal;font-weight:bold;font-stretch:normal;font-size:10.58333302px;line-height:1.25;font-family:sans-serif;-inkscape-font-specification:'sans-serif Bold';letter-spacing:0px;word-spacing:0px;fill:#b40000;fill-opacity:1;stroke:none;stroke-width:0.26458332"
           d="m -148.74568,92.076795 v 1.643311 h 1.90686 v 1.322916 h -1.90686 v 2.454631 q 0,0.403076 0.16019,0.54777 0.1602,0.139526 0.63562,0.139526 h 0.95085 v 1.322917 h -1.58647 q -1.09554,0 -1.55546,-0.454753 -0.45475,-0.45992 -0.45475,-1.55546 v -2.454631 h -0.91984 v -1.322916 h 0.91984 v -1.643311 z" />
      </g>
    </g>
  </g>
</svg>
